<?xml version="1.0" encoding="UTF-8"?>
<svg id="Artwork" xmlns="http://www.w3.org/2000/svg" width="412.929" height="48.156" version="1.1" viewBox="0 0 412.929 48.156">
  <!-- Generator: Adobe Illustrator 29.4.0, SVG Export Plug-In . SVG Version: 2.1.0 Build 152)  -->
  <g>
    <path d="M54.58,11.914h14.062c6.25,0,10.352,3.491,10.352,8.813v.049c0,3.711-2.808,7.153-6.519,7.69v.098c5.005.513,8.252,3.955,8.252,8.594v.049c0,6.177-4.517,9.937-12.012,9.937h-14.136V11.914ZM60.049,16.382v10.547h6.055c4.834,0,7.446-1.953,7.446-5.493v-.049c0-3.223-2.271-5.005-6.226-5.005h-7.275ZM60.049,31.152v11.523h7.544c4.907,0,7.544-1.978,7.544-5.737v-.049c0-3.784-2.686-5.737-7.91-5.737h-7.178Z"/>
    <path d="M84.432,38.11v-16.65h5.273v15.625c0,3.882,1.807,6.03,5.469,6.03,3.711,0,6.104-2.661,6.104-6.665v-14.99h5.298v25.684h-5.298v-3.857h-.122c-1.343,2.588-3.955,4.37-7.861,4.37-5.64,0-8.862-3.638-8.862-9.546Z"/>
    <path d="M110.677,39.795l-.024-.22h5.225l.049.244c.488,2.368,2.246,3.76,5.493,3.76,3.174,0,5.078-1.318,5.078-3.394v-.024c0-1.66-.928-2.612-3.687-3.271l-4.199-.952c-4.883-1.123-7.3-3.467-7.3-7.202v-.024c0-4.59,4.004-7.739,9.912-7.739,6.079,0,9.741,3.394,10.01,7.764l.024.293h-4.956l-.024-.171c-.317-2.246-2.075-3.809-5.054-3.809-2.832,0-4.614,1.343-4.614,3.394v.024c0,1.587,1.05,2.661,3.809,3.32l4.175.952c5.249,1.221,7.251,3.296,7.251,6.982v.024c0,4.688-4.395,7.91-10.449,7.91-6.421,0-10.181-3.174-10.718-7.861Z"/>
    <path d="M135.702,14.478c0-1.685,1.367-3.052,3.076-3.052,1.733,0,3.076,1.367,3.076,3.052,0,1.66-1.343,3.027-3.076,3.027-1.709,0-3.076-1.367-3.076-3.027ZM136.141,21.46h5.273v25.684h-5.273v-25.684Z"/>
    <path d="M146.859,21.46h5.273v3.882h.122c1.343-2.612,3.979-4.37,7.861-4.37,5.64,0,8.887,3.638,8.887,9.546v16.626h-5.298v-15.625c0-3.857-1.807-6.03-5.469-6.03-3.711,0-6.104,2.686-6.104,6.689v14.966h-5.273v-25.684Z"/>
    <path d="M172.933,34.399v-.024c0-8.032,4.639-13.403,11.841-13.403s11.621,5.176,11.621,12.891v1.782h-18.188c.098,4.858,2.759,7.69,6.958,7.69,3.125,0,5.2-1.611,5.859-3.54l.073-.195h5.005l-.049.269c-.83,4.077-4.785,7.788-11.011,7.788-7.544,0-12.109-5.151-12.109-13.257ZM178.28,31.909h12.891c-.439-4.443-2.93-6.616-6.372-6.616-3.418,0-6.055,2.319-6.519,6.616Z"/>
    <path d="M199.374,39.795l-.024-.22h5.225l.049.244c.488,2.368,2.246,3.76,5.493,3.76,3.174,0,5.078-1.318,5.078-3.394v-.024c0-1.66-.928-2.612-3.687-3.271l-4.199-.952c-4.883-1.123-7.3-3.467-7.3-7.202v-.024c0-4.59,4.004-7.739,9.912-7.739,6.079,0,9.741,3.394,10.01,7.764l.024.293h-4.956l-.024-.171c-.317-2.246-2.075-3.809-5.054-3.809-2.832,0-4.614,1.343-4.614,3.394v.024c0,1.587,1.05,2.661,3.809,3.32l4.175.952c5.249,1.221,7.251,3.296,7.251,6.982v.024c0,4.688-4.395,7.91-10.449,7.91-6.421,0-10.181-3.174-10.718-7.861Z"/>
    <path d="M223.519,39.795l-.024-.22h5.225l.049.244c.488,2.368,2.246,3.76,5.493,3.76,3.174,0,5.078-1.318,5.078-3.394v-.024c0-1.66-.928-2.612-3.687-3.271l-4.199-.952c-4.883-1.123-7.3-3.467-7.3-7.202v-.024c0-4.59,4.004-7.739,9.912-7.739,6.079,0,9.741,3.394,10.01,7.764l.024.293h-4.956l-.024-.171c-.317-2.246-2.075-3.809-5.054-3.809-2.832,0-4.614,1.343-4.614,3.394v.024c0,1.587,1.05,2.661,3.809,3.32l4.175.952c5.249,1.221,7.251,3.296,7.251,6.982v.024c0,4.688-4.395,7.91-10.449,7.91-6.421,0-10.181-3.174-10.718-7.861Z"/>
    <path d="M259.53,11.914h13.11c6.909,0,11.694,4.639,11.694,11.548v.049c0,6.885-4.785,11.597-11.694,11.597h-7.642v12.036h-5.469V11.914ZM264.999,16.528v13.989h6.274c4.761,0,7.495-2.563,7.495-6.982v-.049c0-4.395-2.734-6.958-7.495-6.958h-6.274Z"/>
    <path d="M285.433,39.844v-.049c0-4.468,3.467-7.202,9.546-7.568l6.982-.415v-1.929c0-2.832-1.831-4.541-5.103-4.541-3.052,0-4.932,1.44-5.371,3.491l-.049.22h-4.98l.024-.269c.366-4.419,4.199-7.812,10.522-7.812,6.274,0,10.254,3.32,10.254,8.472v17.7h-5.298v-4.053h-.098c-1.489,2.759-4.468,4.517-7.861,4.517-5.127,0-8.569-3.149-8.569-7.764ZM295.443,43.384c3.711,0,6.519-2.515,6.519-5.859v-2.002l-6.274.391c-3.174.195-4.932,1.587-4.932,3.76v.049c0,2.246,1.855,3.662,4.688,3.662Z"/>
    <path d="M312.362,21.46h5.273v4.395h.122c.83-3.003,2.979-4.883,5.908-4.883.757,0,1.416.122,1.831.195v4.907c-.415-.171-1.343-.293-2.368-.293-3.394,0-5.493,2.222-5.493,6.055v15.308h-5.273v-25.684Z"/>
    <path d="M331.381,40.381v-14.722h-3.687v-4.199h3.687v-6.689h5.396v6.689h4.81v4.199h-4.81v14.404c0,2.612,1.172,3.394,3.394,3.394.562,0,1.025-.049,1.416-.098v4.077c-.61.098-1.611.22-2.686.22-5.078,0-7.52-2.148-7.52-7.275Z"/>
    <path d="M345.931,21.46h5.273v3.882h.122c1.343-2.612,3.979-4.37,7.861-4.37,5.64,0,8.887,3.638,8.887,9.546v16.626h-5.298v-15.625c0-3.857-1.807-6.03-5.469-6.03-3.711,0-6.104,2.686-6.104,6.689v14.966h-5.273v-25.684Z"/>
    <path d="M371.756,34.399v-.024c0-8.032,4.639-13.403,11.841-13.403s11.621,5.176,11.621,12.891v1.782h-18.188c.098,4.858,2.759,7.69,6.958,7.69,3.125,0,5.2-1.611,5.859-3.54l.073-.195h5.005l-.049.269c-.83,4.077-4.785,7.788-11.011,7.788-7.544,0-12.109-5.151-12.109-13.257ZM377.102,31.909h12.891c-.439-4.443-2.93-6.616-6.372-6.616-3.418,0-6.055,2.319-6.519,6.616Z"/>
    <path d="M399.295,21.46h5.273v4.395h.122c.83-3.003,2.979-4.883,5.908-4.883.757,0,1.416.122,1.831.195v4.907c-.415-.171-1.343-.293-2.368-.293-3.394,0-5.493,2.222-5.493,6.055v15.308h-5.273v-25.684Z"/>
  </g>
  <g>
    <path d="M28.84,11.818c-3.857-.285-7.129,2.154-8.954,2.154-1.852,0-4.708-2.093-7.736-2.036-3.976.058-7.64,2.313-9.69,5.873-4.129,7.168-1.054,17.789,2.968,23.605,1.968,2.842,4.314,6.045,7.396,5.928,2.967-.117,4.089-1.919,7.675-1.919s4.595,1.919,7.732,1.861c3.193-.059,5.217-2.901,7.17-5.759,2.26-3.299,3.189-6.493,3.244-6.662-.071-.027-6.225-2.388-6.286-9.478-.056-5.928,4.838-8.777,5.061-8.914-2.778-4.092-7.069-4.543-8.581-4.655Z"/>
    <path d="M26.46,7.979c1.638-1.98,2.74-4.737,2.437-7.479-2.358.093-5.209,1.57-6.9,3.549-1.514,1.753-2.844,4.559-2.483,7.246,2.628.203,5.309-1.335,6.946-3.316Z"/>
  </g>
</svg>